<?xml version="1.0" encoding="UTF-8"?>
<svg id="Capa_2" xmlns="http://www.w3.org/2000/svg" viewBox="0 0 425.34 648.33">
  <defs>
    <style>
      .cls-1 {
        fill: #888b8f;
      }
    </style>
  </defs>
  <g id="Capa_1-2" data-name="Capa_1">
    <path class="cls-1" d="M425,471.24c.7,4.92.37,9.73-1.34,14.35-1.74,4.7-4.51,8.82-8.44,12-2.6,2.1-5.33,4.05-8.11,5.91-7.67,5.14-11.91,12.03-10.77,21.46.46,3.81,1.43,7.6,2.53,11.29,2.02,6.8,1.65,13.3-1.38,19.74-1.76,3.76-4.19,7.06-7.13,9.82-7.6,7.11-16.5,11.06-27.17,9.7-5.45-.7-10.2-2.93-14.24-6.78-5.27-5.02-10.7-9.87-16.06-14.81-4.29-3.95-8.56-7.93-12.85-11.88-2.32-2.13-4.66-4.24-6.99-6.36-2.21-2-5.86-2.22-8.14-.36-.7.57-1,.49-1.65-.05-4.33-3.6-7.39-8.31-11.09-12.46-2.17-2.42-4.39-4.8-6.64-7.14-.34-.36-.97-.44-1.46-.65-.16.5-.46,1.01-.46,1.51-.03,8.85,0,17.7-.02,26.54-.09,25.45-.2,50.9-.3,76.36,0,1.09-.12,2.18-.04,3.26.38,4.97-2.09,8.5-5.57,11.65-4.3,3.89-9.42,6.21-14.8,8.07-11.65,4.02-23.73,5.45-35.98,5.82h0c-13.4.15-13.48.08-13.98.04-5.51-.48-11.04-.77-16.53-1.42-6.83-.8-13.63-1.94-20.13-4.26-4.6-1.64-9.22-3.32-13.6-5.46-4.46-2.19-8.05-5.54-10.31-10.1-.26-.53-.33-1.2-.33-1.8-.11-11.95-.25-23.9-.26-35.85-.02-15.1.05-30.21.13-45.31.04-7.86.2-15.72.27-23.58,0-.5-.3-1.01-.46-1.51-.48.23-1.08.34-1.42.7-2.88,3.1-5.74,6.21-8.55,9.37-3.29,3.7-6.54,7.44-9.79,11.17-.57.65-1.1,1.32-1.62,2.01-.61.82-1.56.8-2.22.02-1.96-2.31-3.92-4.62-5.96-6.86-1.35-1.48-1.98-1.57-3.54-.24-1.81,1.53-3.49,3.22-5.09,4.97-3.81,4.14-7.54,8.35-11.32,12.52-5,5.5-9.89,11.1-15.06,16.44-3.26,3.37-7.52,5.15-12.14,6-5.14.95-10.13.59-15.11-1.08-7.08-2.38-12.71-6.77-16.9-12.74-5.11-7.28-6.12-15.45-3.97-24.1,1.08-4.33,1.33-8.77.66-13.25-1.03-6.82-4.89-11.59-10.58-15.07-3.07-1.88-6.4-3.37-9.33-5.45-2.84-2.01-5.27-4.54-7.25-7.53-2.76-4.16-4.27-8.64-4.74-13.57-.5-5.27.47-10.3,2.38-15.16,2.32-5.9,5.92-10.98,10.81-15.02,2.57-2.13,5.49-3.83,8.15-5.86,4.94-3.77,9.49-7.94,12.73-13.36,4.26-7.13,4.33-14.3.33-21.49-3.49-6.29-8.76-10.93-14.62-14.88-5.2-3.51-10.72-6.56-15.89-10.12-3.4-2.33-6.08-5.41-7.96-9.26-2.32-4.75-3.49-9.76-3.66-14.91-.12-3.67.68-7.38,1.07-11.07.13-1.23.35-2.45.34-3.68-.04-4.73,2.32-8.51,4.82-12.19,3.3-4.86,8.04-8.11,13.01-11.06,1.91-1.14,3.82-2.28,5.62-3.58,4.53-3.28,6.42-8.08,7.41-13.34,1.19-6.29,1.68-12.64,2.13-19.03.39-5.5,3.4-10,7.72-13.51,5.08-4.14,10.96-6.07,17.46-6.22,2.07-.05,4.14-.05,6.21,0,5.25.12,10.13,1.58,14.34,4.72,8.74,6.52,17.37,13.2,26.05,19.79,1.32,1,2.7,1.91,4.05,2.86,1.21.84,2.34.66,3.36-.34.77-.76,1.54-1.53,2.28-2.33,2.55-2.76,5.48-2.99,8.73-1.18,4.04,2.25,7.76,5.1,11.58,7.76,5.47,3.81,10.92,7.65,16.34,11.54,1.23.88,2.17.55,2.96-.44,2.85-3.6,5.91-7.07,8.4-10.91,4.04-6.24,7.91-12.61,11.45-19.14,2.67-4.93,4.65-10.23,5.69-15.8.56-2.98,1.61-5.95,1.64-8.93.04-4.16-.97-8.27-2.38-12.24-1.48-4.18-2.86-8.39-4.44-12.53-1.62-4.24-3.41-8.41-5.14-12.6-1.57-3.82-3.15-7.63-4.75-11.43-2.08-4.95-4.27-9.85-6.24-14.84-1.65-4.17-3.16-8.4-4.56-12.66-1.33-4.06-2.49-8.18-3.62-12.3-.59-2.18-.97-4.43-1.39-6.65-.58-3.08-1.1-6.18-1.64-9.27-.07-.41-.17-.81-.2-1.23-.35-5.36-.98-10.72-.95-16.07.05-7.22.37-14.47,1.03-21.66.49-5.31,1.73-10.56,2.64-15.83,1.23-7.14,3.35-14.02,5.97-20.76,4.36-11.19,10.11-21.6,17.67-30.94,2.49-3.08,5.43-5.79,8.03-8.79,6.54-7.54,14.41-13.47,22.71-18.84,2.79-1.81,6.08-2.84,8.96-4.52,6.82-3.98,14.03-7.18,21.4-9.82,4.24-1.52,9.01-1.55,13.55-2.19,1.53-.22,3.1-.21,4.64-.39.58-.07,1.14-.39,1.7-.6h13.04c1.49.32,2.97.77,4.49.95,6.65.81,12.98,2.62,18.66,6.25,5.31,3.39,8.97,7.92,9.45,14.48.31,4.24-.92,8.05-3.24,11.58-1.9,2.88-4.51,5.06-6.87,7.51-3.34,3.48-7.81,4.42-11.82,6.4-5.36,2.65-11.04,4.74-16.17,7.78-10.49,6.23-18.51,14.99-24.23,25.78-1.76,3.32-3.37,6.73-4.76,10.22-.98,2.47-1.51,5.13-2.14,7.73-.62,2.55-1.12,5.13-1.67,7.7-.04.2-.14.4-.14.6-.02,5.85-2.23,11.65-.4,17.54.18.58.07,1.24.15,1.85.58,4.38,1.09,8.78,1.79,13.15.64,3.96,1.41,7.91,2.29,11.83.69,3.06,1.63,6.06,2.48,9.09,1.12,3.96,2.2,7.94,3.41,11.88.99,3.21,2.1,6.39,3.24,9.56,1.48,4.12,3.07,8.2,4.56,12.32,1.59,4.41,3.23,8.81,4.64,13.28.98,3.09,1.65,6.28,2.39,9.43.59,2.51,1.08,5.04,1.61,7.55.05.25.15.5.17.76.4,4.1.82,8.21,1.18,12.31.24,2.73.49,5.46.56,8.19.08,3.25.01,6.51-.07,9.76-.05,1.75-.28,3.5-.43,5.25-.39,4.78-.48,9.6-1.25,14.32-.85,5.17-2.23,10.26-3.58,15.34-.94,3.53-2.18,6.99-3.35,10.46-4.11,12.19-10.52,23.01-19.65,32.07-6.49,6.44-13.35,12.51-20.08,18.7-2.61,2.4-5.43,4.59-7.97,7.06-3.51,3.39-6.93,6.88-10.24,10.45-5.87,6.33-10.88,13.33-14.49,21.16-2.04,4.41-3.25,9.21-4.72,13.88-2.4,7.63-2.11,15.52-1.83,23.36.1,2.7.92,5.37,1.41,8.05.76,4.1,3.04,7.52,4.82,11.17.27.55.04,1.33.13,1.99.1.77.1,1.64.48,2.27,2.95,4.81,6.39,9.27,10.46,13.19,6.91,6.65,14.95,11.3,24.41,13.32,7.98,1.71,15.92,1.5,23.84-.37,6.18-1.46,12-3.83,17.34-7.23,4.27-2.72,7.67-6.45,10.7-10.46,2.88-3.81,5.01-8.05,6.45-12.62,1.48-4.71,1.89-9.53,1.36-14.41-.1-.94-.95-1.78-1.33-2.72-.88-2.2-1.47-4.54-2.55-6.63-4.01-7.76-10.23-13.12-18.37-16.24-1.82-.7-3.67-1.38-5.56-1.87-6.02-1.55-10.66,1.21-14.76,5.12-1.27,1.21-2.16,2.88-2.97,4.46-.27.53,0,1.71.46,2.16.46.46,1.59.72,2.18.47,1.31-.56,2.51-1.43,3.66-2.29,5.11-3.8,10.72-4.36,16.78-2.97,5.17,1.18,9,4.01,11.53,8.6,1.05,1.9,1.81,3.95,1.62,6.21-.05.62-.09,1.25.01,1.86.7,4.28-1.32,7.85-2.91,11.55-3.16,7.36-8.37,13.15-14.46,18.06-9.62,7.76-20.47,9.98-32.43,6.11-5.13-1.66-9.75-4.16-13.79-7.68-2.12-1.84-3.96-4-6-5.94-.84-.8-1.87-1.38-2.8-2.09-.69-.52-1.54-.96-2-1.65-2.85-4.28-4.99-8.88-6.61-13.78-2.6-7.83-2.5-15.92-1.66-23.81,2.02-18.92,10.41-34.43,26.7-45.04,4.65-3.03,9.69-5.24,15.07-6.74,4.15-1.15,8.31-1.91,12.64-1.97,3.45-.05,6.92-.82,10.34-.61,5.59.35,11.24.84,16.71,2,9.5,2.02,18.47,5.69,26.6,11.02,6.81,4.47,12.16,10.57,16.93,17.14,4.1,5.63,7.4,11.7,9.73,18.27.15.43.43.98.29,1.34-.87,2.28.28,4.26.84,6.31,2.59,9.49,3.1,19.15,2.54,28.92-.44,7.58-1.73,15.02-3.87,22.25-1.04,3.51-2.98,6.79-4.77,10.03-2.17,3.91-4.45,7.78-6.98,11.46-2.57,3.73-5.49,7.22-8.27,10.8-1.55,2-3.17,3.94-4.69,5.95-.89,1.18-1.04,2.41,0,3.68,2.93,3.6,5.77,7.27,8.73,10.84,1.38,1.66,2.91,3.2,4.45,4.71,1.08,1.06,2.23,1.17,3.32-.12,2.5-2.94,5.11-5.8,7.52-8.81,2.12-2.65,4.17-5.39,6-8.24,3.06-4.76,6.14-9.53,8.79-14.52,2.46-4.63,4.57-9.47,6.46-14.36,3.97-10.23,6.35-20.86,7.04-31.82.62-9.69.19-19.36-1.82-28.87-1.16-5.5-2.9-10.87-4.4-16.3-.25-.89-.62-1.75-.87-2.64-.45-1.56-1.15-2.79-2.6-3.8-.97-.68-1.35-2.24-1.9-3.44-7.56-16.63-17.5-31.74-29.16-45.76-3.6-4.33-7.3-8.58-10.95-12.88-.46-.55-.87-1.14-1.36-1.67-1.49-1.62-2.86-1.81-4.6-.51-7.05,5.24-14.08,10.52-21.11,15.79-1.86,1.39-3.66,2.89-5.6,4.16-1.41.92-2.96,1.72-4.54,2.26-3.28,1.13-6.28-.5-7.25-3.75-1.06-3.53-.42-5.88,2.51-8.16,6.04-4.7,12.13-9.33,18.23-13.96,5.03-3.81,10.05-7.62,15.15-11.33,2.32-1.69,4.95-2.45,7.91-1.91,3.37.62,6.06-.36,8.55-2.98,3.73-3.9,7.99-7.29,11.92-11,3.86-3.65,7.52-7.51,11.4-11.14,3.9-3.65,7.8-7.33,12.01-10.62,4.21-3.29,9.19-4.82,14.59-4.8,3.11.01,6.21-.12,9.31.02,8.94.4,16.06,4.13,20.43,12.11,1.31,2.38,1.99,5.2,2.5,7.91,1.08,5.72,1.8,11.5,3.82,17.02.93,2.54,1.39,5.3,2.58,7.69.77,1.55,2.29,2.96,3.82,3.85,2.75,1.61,5.73,2.83,8.64,4.14,3.74,1.67,7.25,3.68,10.35,6.36,4.88,4.21,7.94,9.62,10.01,15.64,1.73,5.04,2.63,10.24,2.41,15.55-.35,8.27-2.67,15.8-9.44,21.22-2.97,2.38-6.23,4.4-9.26,6.72-6.08,4.65-11.97,9.52-16.58,15.72-2.97,3.98-5.2,8.32-5.81,13.34-.74,6.08,1.56,11.15,5.45,15.61,4.34,4.97,9.68,8.68,15.48,11.69,5.86,3.04,11.44,6.39,15.57,11.67,3.8,4.85,6.5,10.22,7.39,16.44ZM414.5,479.79c1.59-9.87-2.19-17.63-10.09-23.42-2.68-1.96-5.76-3.38-8.67-5.02-6.39-3.6-12.21-7.91-17.14-13.38-3.41-3.77-6.04-8.05-7.24-12.98-1.62-6.67-.86-13.25,1.94-19.53,2.52-5.67,6.23-10.54,10.44-15.06,6.46-6.93,14.26-12.2,21.84-17.77,1.42-1.04,2.72-2.43,3.62-3.93,2.07-3.45,2.78-7.31,2.55-11.15.12-4.05-.71-7.74-1.87-11.42-2.41-7.66-7.56-12.58-14.84-15.59-3.65-1.51-7.21-3.26-10.81-4.9-.98-.44-1.96-.87-2.94-1.32-.72-.33-1.57-.54-2.12-1.06-2.83-2.7-4.6-6.09-5.88-9.73-2.22-6.3-3-12.93-4.15-19.46-.56-3.18-1.85-6.04-3.88-8.32-3-3.38-7.13-5.2-11.6-5.58-4.48-.38-8.59,1.25-12.05,4.05-3.29,2.66-6.31,5.65-9.43,8.51-9.44,8.65-18.87,17.3-28.3,25.96-1.35,1.24-1.43,2.19-.28,3.61,1.04,1.29,2.09,2.56,3.17,3.82,12.8,14.99,24.27,30.87,32.74,48.77,1.25,2.64,2.95,5.15,2.51,8.32-.06.41.25.87.41,1.31,1.48,3.95,3.15,7.84,4.4,11.86,1.31,4.22,2.44,8.53,3.25,12.87,1.1,5.93,2.24,11.91,2.61,17.91.69,11.02.17,22.02-2.63,32.79-1.33,5.13-2.58,10.3-4.34,15.28-2.53,7.13-5.79,13.96-9.49,20.59-4.82,8.64-10.52,16.67-16.65,24.4-2.42,3.05-2.31,5.43.57,8.08,11.44,10.55,22.88,21.1,34.35,31.63,1.4,1.29,2.79,2.73,4.45,3.58,4.59,2.35,9.46,2.42,14.33.88,5.5-1.73,10.05-4.87,13.19-9.75,2.83-4.41,4.26-9.15,2.64-14.44-.86-2.8-1.6-5.65-2.28-8.5-1.41-5.92-1.52-11.82.02-17.78,1.38-5.31,4.23-9.68,7.97-13.54,3.47-3.59,7.71-6.21,11.82-8.98,4.18-2.82,7.07-6.63,7.87-11.61ZM307.99,441.44c1.13-6.99.36-13.92-.37-20.86-.21-1.93-.7-3.84-1.13-5.75-.4-1.81-1.96-3.22-1.81-5.23.01-.17-.18-.36-.28-.53-.54-.93-1.28-1.79-1.58-2.79-.78-2.58-1.81-5.01-3.28-7.28-1.38-2.13-2.49-4.45-3.91-6.56-1.21-1.79-2.49-3.62-4.08-5.06-3.4-3.07-6.01-7.03-10.19-9.24-.78-.42-1.56-.85-2.33-1.28-1.6-.88-3.18-1.82-4.82-2.63-1.63-.81-3.33-1.5-5-2.24-1.34-.59-2.65-1.3-4.04-1.71-1.71-.5-3.66-.4-5.19-1.19-1.38-.71-2.68-.8-4.09-.9-.19-.01-.36-.18-.55-.25-.69-.24-1.38-.59-2.09-.66-1.49-.15-3.17.26-4.43-.31-1.42-.64-2.76-.69-4.18-.7-2.59-.02-5.17,0-7.76,0-.41,0-.98-.12-1.21.09-1.49,1.42-3.32.72-5,.91-.45.05-.9.15-1.32.29-1.59.54-3.15,1.14-4.74,1.66-1.33.44-2.75.65-4.02,1.23-1.84.83-3.58,1.87-5.34,2.87-1.31.74-2.71,1.39-3.83,2.36-2.07,1.78-4.06,3.68-5.92,5.68-2.38,2.58-4.6,5.31-6.89,7.98-.1.11-.15.27-.21.41-.73,1.69-1.46,3.37-2.17,5.07-.62,1.49-1.28,2.98-1.8,4.51-.46,1.33-.45,2.93-1.2,4.02-.88,1.27-.75,2.49-.81,3.8-.01.26.01.58-.13.75-1.24,1.48-.77,3.24-.85,4.91-.05,1.03.18,2.18-.21,3.07-.61,1.42-.55,2.44.02,3.96.75,1.99-.04,4.39,1.11,6.53.74,1.37.85,3.08,1.29,4.62.26.92.54,1.85.98,2.69.84,1.59,2.15,3.02,2.62,4.7.63,2.24,3.1,3.12,3.48,5.4,3.36,2.86,5.92,6.53,10.16,8.54,3.09,1.47,6.16,2.88,9.47,3.35,6.41.92,12.43-.55,17.63-4.46,4.5-3.38,8.59-7.29,10.99-12.49.98-2.12,2.17-4.16,2.52-6.69.21-1.51-.13-2.74-.15-4.1-.02-1.42-.61-2.34-1.6-3.1-.66-.5-1.62-.69-2.15-1.29-1.12-1.25-2.51-.64-3.78-.79-1.45-.17-2.64.09-3.07,1.8-.1.41-.69.75-1.12,1.02-1.75,1.11-3.52,2.2-5.29,3.27-.55.33-1.14.61-1.73.88-1.22.56-2.42,1.47-3.69,1.59-2.73.26-5.51.11-8.26.13-.03,0-.06-.08-.11-.11-.89-.53-1.72-1.28-2.68-1.53-1.82-.48-2.45-1.88-3.34-3.26-.68-1.04-.54-2.42-1.11-3.13-1.2-1.5-.86-3.04-.76-4.53.16-2.37.44-4.79,1.12-7.05.54-1.79,1.95-3.3,2.61-5.07.87-2.33,2.68-3.91,4.14-5.74,1.69-2.13,4.05-3.58,6.5-4.88,2.61-1.39,5.18-2.66,8.18-2.77.15,0,.35.03.46-.05,2.26-1.69,4.86-.65,7.3-.89.45-.04.93.07,1.38.19,2.22.57,4.43,1.15,6.63,1.76,1.48.4,3,.71,4.4,1.3,1.73.73,3.39,1.63,5,2.59,2.58,1.55,5.28,2.99,7.59,4.88,3.01,2.47,5.85,5.2,7.85,8.65.9,1.56,1.94,3.03,2.78,4.62.56,1.05.84,2.25,1.3,3.36.52,1.24,1.32,2.4,1.62,3.68.48,2.04.84,4.15.92,6.24.22,5.46.73,10.96-.89,16.32-.62,2.05-1.3,4.08-1.89,6.14-1.15,3.98-3.19,7.53-5.43,10.94-2.98,4.53-6.53,8.6-10.76,12.05-1.19.97-2.22,2.19-3.52,2.96-2.76,1.63-5.64,3.09-8.51,4.52-1.78.88-3.6,1.73-5.48,2.34-2.72.88-5.5,1.65-8.3,2.26-3.21.7-6.45,1.45-9.71,1.67-4.84.33-9.71.46-14.5-.75-3.23-.81-6.62-1.16-9.7-2.34-3.97-1.53-7.77-3.57-11.52-5.62-5.22-2.86-9.67-6.76-13.74-11.09-4.89-5.19-8.87-11.04-12.23-17.31-1.56-2.91-2.78-5.99-4.4-8.86-1.19-2.1-1.88-4.2-1.79-6.61.04-1.17-.05-2.36-.23-3.52-.14-.93-.7-1.83-.7-2.75-.06-6.72-.04-13.45-.02-20.18,0-.71.2-1.42.35-2.12.18-.88.48-1.75.6-2.64.16-1.12.13-2.26.31-3.37.14-.87.46-1.72.71-2.58.22-.74.47-1.48.69-2.22.12-.39.21-.78.3-1.18.35-1.65.69-3.31,1.05-4.97.02-.09.11-.17.16-.26.56-.98,1.21-1.93,1.65-2.96.79-1.89,1.29-3.91,2.19-5.74,1.18-2.42,2.56-4.76,3.99-7.05,1.32-2.12,2.68-4.24,4.27-6.16,2.7-3.25,5.47-6.47,8.44-9.48,3.74-3.78,7.72-7.32,11.6-10.96,1.94-1.82,3.82-3.7,5.84-5.44,3.99-3.43,8.23-6.59,12.02-10.22,3.88-3.71,7.34-7.85,10.99-11.8,1.04-1.13,2.22-2.14,3.13-3.37,1.21-1.64,1.95-3.7,3.37-5.09,1.69-1.65,2.32-3.8,3.45-5.69,1.3-2.17,2.07-4.64,3.08-6.98.35-.8.75-1.59,1.05-2.41.6-1.64,1.16-3.29,1.71-4.94.44-1.33.9-2.67,1.26-4.02.4-1.49.25-3.44,1.17-4.4,1.53-1.62.29-3.69,1.65-5.4.86-1.07.33-3.23,1.04-4.93.63-1.52.49-3.38.91-5.12.75-3.05.57-6.32.95-9.51.66-5.56.22-11.26.23-16.9,0-.31.04-.68-.1-.92-1.33-2.2-.74-4.63-.88-6.97-.03-.51-.11-1.02-.22-1.51-.23-1.03-.58-2.03-.74-3.07-.39-2.39-.7-4.8-1.05-7.2-.02-.15-.13-.28-.18-.42-.26-.83-.52-1.67-.78-2.51-.21-.65-.44-1.3-.64-1.96-.14-.48-.25-.98-.36-1.47-.37-1.63-.7-3.27-1.14-4.88-.3-1.09-.75-2.15-1.16-3.21-.54-1.37-1.12-2.71-1.65-4.08-.5-1.32-.93-2.67-1.43-3.99-.49-1.28-1.1-2.52-1.53-3.82-.48-1.43-.74-2.93-1.25-4.34-.81-2.27-1.76-4.5-2.63-6.75-.38-.98-.76-1.95-1.04-2.96-.43-1.54-.63-3.15-1.2-4.63-.8-2.08-1.84-4.06-1.84-6.36,0-.19-.13-.38-.21-.57-.58-1.38-1.3-2.73-1.7-4.16-.49-1.73-.71-3.55-1.05-5.32-.03-.15-.13-.28-.17-.43-.27-.9-.55-1.79-.79-2.69-.11-.39.02-.99-.21-1.17-1.01-.78-.76-1.83-.8-2.84-.02-.46-.07-.92-.19-1.37-.57-2.05-1.39-4.05-1.71-6.14-.28-1.8-.28-3.58-.89-5.4-.7-2.1-.35-4.43-.94-6.71-.87-3.37-.19-6.99-.94-10.55-.71-3.37-.24-7-.11-10.51.06-1.66.64-3.3.81-4.97.39-3.75.67-7.51,1.01-11.27.02-.23.23-.44.32-.67.23-.58.52-1.15.66-1.75.43-1.84.81-3.69,1.21-5.53.02-.1.12-.17.15-.27.54-1.54,1.09-3.07,1.61-4.61.39-1.15.64-2.35,1.13-3.44.89-1.99,1.9-3.92,2.89-5.86.42-.83.89-1.63,1.4-2.41.81-1.23,1.67-2.42,2.5-3.63,1.24-1.83,2.34-3.77,3.73-5.47,1.81-2.22,3.8-4.31,5.8-6.37,1.39-1.43,2.91-2.74,4.42-4.05,2.34-2.04,4.51-4.4,7.15-5.93,2.66-1.54,4.85-3.89,8.12-4.54,2.42-.48,4.69-1.74,7.03-2.66.79-.31,1.56-.7,2.36-.95,1.42-.44,2.95-.62,4.29-1.23,2.45-1.11,4.84-2.38,7.18-3.73,3.15-1.82,6.22-3.77,8.09-7.09,2.01-3.57,2.02-4.97-.35-7.84-2.27-2.75-5.47-4.37-8.92-5.37-1.46-.42-2.92-.9-4.41-1.2-3.01-.6-6.02-1.38-9.07-1.57-5.36-.34-10.72-.18-16.08.62-4.15.62-8.35.87-12.36,2.22-.67.23-1.27.62-1.92.91-1.93.86-3.91,1.61-5.78,2.57-2.68,1.37-5.29,2.88-7.91,4.35-2.42,1.37-4.87,2.7-7.22,4.17-2.27,1.42-4.45,3-6.65,4.53-1.03.72-2.03,1.48-3.05,2.22-2.2,1.59-4.63,2.96-6.57,4.82-5.48,5.27-11.13,10.39-15.71,16.53-1.24,1.66-2.59,3.23-3.88,4.84-.06.08-.07.19-.12.28-.87,1.47-1.77,2.93-2.62,4.42-1.15,2.03-2.27,4.08-3.39,6.13-.88,1.59-1.77,3.18-2.6,4.8-.49.96-.91,1.97-1.3,2.98-.45,1.14-.78,2.33-1.28,3.45-.68,1.51-1.91,2.79-1.75,4.63.02.2-.27.41-.36.64-.22.54-.43,1.08-.6,1.63-.13.42-.18.87-.32,1.28-.2.59-.47,1.16-.66,1.75-.12.38-.12.79-.22,1.18-.25.9-.54,1.79-.78,2.69-.15.53-.23,1.08-.37,1.61-.2.77-.46,1.53-.63,2.32-.12.55-.05,1.14-.19,1.68-.57,2.27-1.4,4.49-1.73,6.78-.3,2.11-.41,4.2-.87,6.33-.71,3.3-.55,6.79-.94,10.2-.63,5.51-.17,11.15-.16,16.74,0,.31-.07.66.05.92,1.12,2.34.8,4.84.87,7.29.01.46.1.92.2,1.37.25,1.13.58,2.25.76,3.39.21,1.36-.47,2.91.9,4.04.17.14.05.59.1.9.37,2.17.73,4.35,1.13,6.52.05.28.33.51.46.79.16.32.32.64.4.98.38,1.64.71,3.3,1.1,4.95.29,1.22.53,2.46.97,3.63.53,1.39,1.31,2.68,1.86,4.07,1.04,2.61,1.99,5.25,2.97,7.88,1.05,2.81,2.08,5.62,3.13,8.43.35.94.77,1.86,1.15,2.78.56,1.36,1.12,2.71,1.68,4.07.13.32.23.66.4.96.51.93,1.17,1.8,1.56,2.78,1.13,2.8,2.14,5.65,3.23,8.47.34.88.74,1.74,1.12,2.61.54,1.24,1.1,2.47,1.63,3.71.16.37.24.77.38,1.14.53,1.36,1.07,2.71,1.61,4.06.11.28.22.57.33.85.54,1.41,1.06,2.83,1.62,4.23.14.36.41.67.59,1.02.17.35.32.71.43,1.08.41,1.46.45,3.16,1.26,4.35,1.71,2.5,1.66,5.46,2.55,8.15.65,1.95.32,4.19.8,6.34.59,2.62.24,5.45.25,8.19,0,.37-.29.75-.41,1.13-.19.57-.59,1.19-.48,1.71.61,2.89-1.23,5.4-1.15,8.23.03,1.24-.63,2.52-1.06,3.75-.54,1.56-1.19,3.09-1.76,4.65-.4,1.08-.62,2.25-1.13,3.27-.8,1.6-1.82,3.08-2.65,4.67-.49.95-.75,2.01-1.19,2.99-.41.89-.9,1.74-1.41,2.57-1.14,1.87-2.33,3.71-3.47,5.57-1.51,2.45-2.94,4.96-4.53,7.36-1.23,1.85-2.66,3.56-4,5.34-1.8,2.38-3.61,4.75-5.39,7.15-1.46,1.97-2.83,4.01-4.31,5.96-1.41,1.86-2.89,3.66-4.38,5.45-2.04,2.47-4.11,4.92-6.17,7.38-.56.67-1.16,1.3-1.69,1.99-1.82,2.37-3.6,4.78-5.44,7.13-.69.89-1.77,1.37-1.94,2.77-.11.91-1.05,1.7-1.55,2.58-.48.85-.87,1.75-1.27,2.64-.44.98-.82,1.98-1.26,2.96-.9,2.03-1.85,4.02-2.71,6.07-.49,1.17-.77,2.43-1.28,3.6-.66,1.52-1.89,2.82-1.73,4.66.02.23-.35.47-.48.73-.2.39-.4.79-.51,1.21-.38,1.46-.41,3.13-1.17,4.35-.68,1.08-.76,2.06-.81,3.17-.01.3-.14.59-.22.88-.25.84-.53,1.67-.75,2.52-.1.39.08,1-.15,1.2-1.18,1.02-.79,2.35-.87,3.6-.02.4-.16.8-.26,1.2-.24.97-.51,1.93-.73,2.9-.28,1.22-.54,2.45-.79,3.68-.1.5-.18,1.01-.19,1.52-.05,1.71.03,3.42-.14,5.12-.11,1.09-.79,2.14-.81,3.21-.09,5.12-.05,10.24-.03,15.37,0,.82.07,1.65.21,2.46.21,1.24.58,2.45.74,3.69.15,1.12-.32,2.57.23,3.34,1.61,2.25-.23,5.22,1.78,7.26-.32,2.87.69,5.43,1.73,8.02,1.41,3.49,2.47,7.14,4.03,10.56,2.12,4.64,4.52,9.15,6.89,13.67,2.9,5.53,6.65,10.5,10.7,15.21,5.26,6.12,11.24,11.47,18.14,15.7,2.64,1.62,5.43,3.02,8.19,4.44,1.81.94,3.66,1.79,5.53,2.6,1.78.77,3.57,1.56,5.41,2.13,2.78.87,5.6,1.62,8.43,2.31,3.94.96,7.9,1.85,11.87,2.71,1.76.38,3.54.76,5.32.87,2.37.15,4.76.04,7.14.04,0,.11.02.22.02.33,3.91-.35,7.82-.65,11.72-1.08,2.61-.28,5.21-.65,7.79-1.14,3.32-.63,6.68-1.21,9.9-2.21,3.05-.95,5.94-2.4,8.9-3.63,4.9-2.02,9.34-4.81,13.61-7.92,9.58-6.98,17.13-15.83,23.53-25.7,2.28-3.51,4.06-7.34,6.35-10.84,2.67-4.09,3.59-8.71,4.5-13.32.67-3.38.72-6.87,1.27-10.27ZM271.36,544.46c1.22-1.07,1.81-2.29,1.8-3.92-.05-4.6-.02-9.21-.02-13.81,0-3.15-.64-3.68-3.78-3.07-.66.13-1.32.26-1.95.48-4.22,1.48-8.37,3.21-12.67,4.42-4.8,1.35-9.69,2.49-14.61,3.26-5.65.88-11.36,1.5-17.07,1.8-12.81.67-25.36-1.23-37.54-5.1-6.26-1.99-12.29-4.71-18.36-7.25-2.94-1.22-4.58-.37-4.6,2.77-.03,5.28-.07,10.55.05,15.83.02.96.55,2.12,1.23,2.81,4.27,4.35,9.86,6.39,15.5,8,5.24,1.49,10.65,2.42,16.03,3.34,8.53,1.46,17.15,1.85,29.24,1.95,3.59-.27,10.64-.48,17.59-1.42,5.75-.78,11.44-2.2,17.05-3.74,4.43-1.22,8.58-3.24,12.12-6.34ZM270.01,587.67c1.68-1.28,2.98-2.9,2.98-5.19,0-4.55-.01-9.1-.07-13.65-.03-2.22-.53-2.7-2.76-2.79-.56-.02-1.15.04-1.68.22-2.49.83-4.93,1.79-7.44,2.56-5.01,1.55-10,3.26-15.1,4.43-4.76,1.09-9.66,1.59-14.5,2.32-9.61,1.44-19.23,1-28.74-.53-6.23-1-12.41-2.6-18.44-4.49-5.87-1.84-11.51-4.44-17.28-6.62-1.08-.41-2.3-.52-3.46-.58-1.05-.06-1.51.55-1.48,1.69.07,2.84.02,5.69.02,8.53,0,2.48.15,4.98-.05,7.44-.17,2.11.61,3.63,2.14,4.86,1.08.87,2.18,1.77,3.38,2.46,4.86,2.8,10.14,4.67,15.56,5.9,5.83,1.33,11.75,2.49,17.69,3.03,7.66.7,15.38.94,23.07.96,5.57,0,11.19-.35,16.7-1.13,5.85-.83,11.64-2.22,17.39-3.64,4.38-1.08,8.45-3.03,12.06-5.79ZM272.96,608.59c.05-2.57-.34-2.93-2.92-2.83-.46.02-.94.06-1.37.21-2.44.83-4.85,1.74-7.29,2.55-3.57,1.18-7.11,2.47-10.74,3.41-3.69.96-7.44,1.67-11.2,2.28-4.23.68-8.47,1.37-12.74,1.62-4.79.28-9.62.24-14.43.02-3.81-.18-7.61-.68-11.38-1.32-3.65-.62-7.28-1.48-10.85-2.44-3.87-1.05-7.71-2.22-11.48-3.57-3.78-1.35-7.48-2.92-11.15-4.55-2.58-1.15-5.21-.22-5.23,3.58-.02,4.4-.08,8.79-.05,13.19.02,2.63,1.26,4.55,3.46,6.04,5.3,3.6,11.27,5.58,17.37,7.12,4.34,1.1,8.79,1.87,13.25,2.36,8.31.92,16.66,1.52,21.85,1.98,14.3-.46,25.36-1.19,36.2-4,5.18-1.35,10.15-3.1,14.63-6.08,2.1-1.39,3.59-3.21,3.7-5.78.21-4.59.27-9.19.37-13.79ZM149.7,504.14c.46-.54.37-1.69.24-2.51-.09-.53-.68-1.02-1.11-1.46-7.74-7.96-14.68-16.52-19.74-26.46-2.98-5.86-6.03-11.73-8.39-17.85-2.47-6.41-4.28-13.09-6.13-19.72-.71-2.55-.77-5.29-1.06-7.95-.25-2.31-.5-4.62-.57-6.94-.12-4.18-.2-8.36-.1-12.54.07-2.99.37-5.97.68-8.95.37-3.54.71-7.09,1.34-10.58.68-3.8,1.6-7.56,2.58-11.3,1.03-3.93,2.08-7.88,3.45-11.71,1.68-4.66,3.62-9.22,5.6-13.76,2.38-5.45,5.08-10.75,8.82-15.43,2.9-3.64,5.78-7.29,8.68-10.93,1.29-1.63,1.23-2.8-.31-4.16-.93-.81-1.91-1.59-2.91-2.31-4.92-3.52-9.95-6.89-14.75-10.56-1.99-1.52-3.76-1.54-5.21.89-4.9,8.2-9.94,16.32-14.62,24.65-2.57,4.57-4.6,9.44-6.71,14.24-1.53,3.49-2.89,7.07-4.15,10.67-1.26,3.6-2.38,7.25-3.42,10.92-.95,3.31-1.76,6.67-2.55,10.02-.52,2.2-.9,4.44-1.32,6.67-.53,2.78-1.12,5.56-1.53,8.36-.41,2.75-.8,5.52-.89,8.3-.21,6.4-.71,12.81.42,19.19.1.58-.04,1.21-.1,1.82-.08.86-.29,1.72-.24,2.57.07,1.29.3,2.57.5,3.84.82,5.04,1.42,10.14,2.56,15.11,1.23,5.37,2.89,10.64,4.54,15.9,1.27,4.02,2.55,8.08,4.31,11.9,3.37,7.34,6.92,14.62,10.7,21.76,5.24,9.92,11.55,19.17,18.33,28.11.82,1.09,1.77,1.5,3.2,1.71.83-.44,1.85-.7,2.45-1.35,2.16-2.36,4.16-4.87,6.26-7.29,3.73-4.29,7.52-8.52,11.17-12.87ZM110.71,527.81c2-2.28,2.18-4.41.66-6.96-1.34-2.26-2.9-4.39-4.25-6.65-3.81-6.37-7.82-12.64-11.26-19.2-3.24-6.18-5.96-12.65-8.73-19.07-1.59-3.68-3-7.46-4.17-11.3-1.62-5.32-3.12-10.7-4.32-16.12-1.16-5.23-1.87-10.56-2.82-15.83-.95-5.28-1.02-10.64-1.72-15.96-1.1-8.37.48-16.8.99-25.2.17-2.77.57-5.54,1.08-8.28.75-4.05,1.63-8.08,2.58-12.08,1.03-4.31,2.02-8.64,3.39-12.85,1.67-5.15,3.49-10.26,5.64-15.22,2.96-6.79,6.23-13.45,9.5-20.11,1.7-3.47,3.73-6.79,5.53-10.22,1.16-2.23.77-4.17-1.02-5.91-.63-.61-1.29-1.2-1.99-1.73-6.97-5.34-13.89-10.76-20.96-15.98-3.64-2.69-7.47-5.17-11.38-7.44-1.83-1.06-4.06-1.81-6.26-1.21-2.47.67-4.88,1.59-7.29,2.49-4.21,1.57-6.71,4.82-7.79,8.97-.79,3.07-1.19,6.32-1.23,9.49-.07,5.35-.76,10.57-1.95,15.77-1.28,5.6-4.13,10.15-8.77,13.43-3.84,2.71-7.99,4.97-11.85,7.64-1.83,1.27-3.88,2.21-5.18,4.36-2.41,3.96-4.63,7.91-5.29,12.59-.26,1.83-.73,3.63-1.01,5.46-.2,1.3-.34,2.63-.29,3.93.04,1.12.38,2.24.6,3.35.83,4.18,2.76,7.7,6.41,10.03,4.61,2.93,9.28,5.77,13.98,8.55,1.15.68,2.64.78,3.77,1.48,1.75,1.08,3.44,2.32,4.94,3.72,2.07,1.92,4.18,3.86,5.84,6.12,1.9,2.59,3.34,5.53,4.96,8.32,2.75,4.76,4.39,9.85,4.58,15.37.07,3.95-.9,7.71-2.3,11.32-1.83,4.72-4.79,8.78-8.16,12.52-4.63,5.14-10.2,9.14-15.78,13.18-8.13,5.89-12.27,13.9-11.11,24.07.62,5.48,3.31,9.94,8.18,12.89,3.88,2.35,7.9,4.5,11.57,7.14,6.81,4.89,10.7,11.62,11.88,20,.84,6,.27,11.85-.96,17.69-.99,4.7-.95,9.27,1.49,13.54,2.8,4.9,6.9,8.27,12.27,10.1,7.11,2.42,14.39,1.42,19.42-4.34,5.48-6.27,11.13-12.38,16.69-18.57,3.97-4.42,7.97-8.82,11.89-13.3Z"/>
  </g>
</svg>