<?xml version="1.0" encoding="UTF-8"?>
<svg id="Capa_2" xmlns="http://www.w3.org/2000/svg" viewBox="0 0 1358.7 600.6">
  <defs>
    <style>
      .cls-1 {
        fill: #325689;
      }

      .cls-2 {
        fill: #621744;
      }

      .cls-3 {
        fill: #9bbd4f;
      }
    </style>
  </defs>
  <g id="Capa_1-2" data-name="Capa_1">
    <g>
      <path class="cls-2" d="M1351.61,54.87c7.04,15.66,7.03,31.34-.07,46.98-4.63,10.21-11.68,18.56-20.2,25.72-12.11,10.18-25.96,17.15-41,21.81-20.68,6.4-41.79,8.45-63.36,6.34-17.47-1.71-34.2-5.93-50.03-13.55-11.08-5.33-21.12-12.14-29.67-21.04-4.73-4.93-8.82-10.33-11.94-16.43-9.36-18.31-8.97-36.5.9-54.47,4.38-7.97,10.32-14.7,17.21-20.58,12.52-10.68,26.94-17.79,42.54-22.67,15.19-4.76,30.82-6.61,46.11-6.97,23.17.37,45.05,4.25,65.63,14.05,10.36,4.93,19.87,11.11,28.15,19.1,6.53,6.3,11.97,13.41,15.71,21.72ZM1291.45,104.08c3.12-8.31,4.26-17,4.1-25.38.09-10.16-1.31-19.59-4.98-28.59-6.34-15.5-17.6-25.32-33.95-29.2-9.07-2.15-18.21-2.21-27.37-.93-22.76,3.18-39.99,18.61-45.82,40.89-3.15,12.03-3.06,24.1-.08,36.13,5.16,20.82,18.35,33.52,39.21,38.23,9.03,2.04,18.17,2.46,27.37,1.24,20.18-2.67,34.3-13.16,41.52-32.4Z"/>
      <path class="cls-2" d="M1109.21,4.16c.84,1.72-.48,2.36-1.2,3.18-1.83,2.1-4.49,3.85-5.41,6.28-1,2.65-.51,5.9-.51,8.89-.02,40.97-.03,81.95,0,122.92,0,7.83-.8,5.83,5.22,10.99,1,.85,1.92,1.79,3.1,2.89-4.82.87-51.39.95-58.68.13.54-.76.84-1.43,1.34-1.88,1.19-1.06,2.4-2.14,3.73-3.01,2.26-1.47,3.13-3.49,2.91-6.12-.1-1.19,0-2.4,0-3.59,0-41.57,0-83.15-.01-124.72,0-8.32.51-6.4-5.01-11.92-.94-.94-1.77-1.99-2.84-3.2,1.64-1.41,3.28-1.11,4.78-1.11,12.19-.03,24.38-.02,36.58-.02,4,0,8-.03,11.99.02,1.37.01,2.75.2,4.01.29Z"/>
      <path class="cls-2" d="M1037.5,24.12c.87,6.55.7,23.29-.34,27.85-1.07-.59-2.11-1.05-3.02-1.68-17.05-11.72-35.81-19.27-56.19-22.68-18.37-3.08-36.6-2.69-54.49,3.04-8.05,2.58-15.53,6.28-22.24,11.48-11.59,8.99-18.42,20.79-20.83,35.21-.88,5.25-.07,10.34,1.48,15.36,2.93,9.46,8.48,17.11,16.2,23.22,8.45,6.69,18.1,10.87,28.48,13.48,19.56,4.92,39.12,4.94,58.65-.17,2.28-.6,4.5-1.44,6.89-2.21.18-1.49.44-2.64.45-3.79.11-13.19.12-26.37.3-39.55.04-2.94-.57-5.46-2.41-7.78-1.72-2.17-3.19-4.52-4.58-6.51.3-1.57,1.21-1.47,1.94-1.47,14.78,0,29.56.03,44.34.07.58,0,1.17.19,2.09.34.23,1.02.67,2.12.71,3.24.49,16.37.89,32.75,1.38,49.12.19,6.11-1.91,11.33-5.75,15.95-3.36,4.05-7.48,7.19-11.95,9.88-8.63,5.2-18.03,8.54-27.72,11.05-16.35,4.23-33.01,5.77-49.87,5.46-5.59-.1-11.19-.13-16.77-.46-18.54-1.08-36.31-5.28-53.06-13.41-10.14-4.92-19.33-11.23-27.08-19.5-8.55-9.12-14.73-19.66-16.17-32.12-2.79-24.03,3.09-45.6,20.21-63.39,10.04-10.44,22.36-17.33,35.88-22.14,11.91-4.25,24.23-6.63,36.83-7.65,20.39-1.64,40.73-.67,61,1.59,15.33,1.71,30.29,5.25,44.38,11.79,3.97,1.84,7.97,3.66,11.27,6.4Z"/>
      <path class="cls-2" d="M810.8,134.96c.38.71.72,1.04.69,1.33-.7,7.75-1.44,15.49-2.2,23.52-1.5.24-2.82.53-4.15.65-1.19.1-2.4.03-3.6.03-47.55,0-95.1,0-142.64-.03-2.12,0-4.32.43-6.75-.59.67-2.34,2.15-3.99,3.5-5.6,2.7-3.22,3.71-6.73,3.69-10.99-.13-40.96-.12-81.91-.03-122.87,0-3.95-.75-7.44-2.96-10.73-1.19-1.77-2.01-3.79-3.18-6.07,1.23-.25,1.94-.49,2.67-.52,16.77-.68,147.75-.23,152.71.51,1,3.89,1.14,17.42.21,24.53-1.3-1.19-2.42-2.22-3.73-3.41-32.19,0-64.54,0-96.89.02-.76,0-1.51.27-2.55.47-.89,3.61-.37,7.2-.45,10.74-.08,3.39.02,6.79.03,10.19,0,3.59-.03,7.19.02,10.79.05,3.35-.27,6.73.6,10.12,2.28,1.03,4.5.68,6.65.69,14.18.06,28.37.06,42.55.08,10.79.02,21.58.02,32.36.05,1.98,0,3.96.11,5.79.16,2.65,5.63,4.99,13.87,5.32,18.91-7.74.55-15.49.21-23.23.36-7.79.15-15.58.2-23.37.28-7.79.09-15.58.16-23.37.24-7.77.09-15.54.19-23.53.29-.33,1.15-.81,2.05-.81,2.96-.03,16.18-.02,32.36,0,48.55,0,.57.25,1.14.47,2.08,1.01.21,2.12.61,3.23.64,4.19.08,8.39.04,12.58.04,25.17,0,50.35-.07,75.52.07,3.85.03,6.96-.84,9.71-3.54,1.52-1.49,3.38-2.63,5.12-3.96Z"/>
      <path class="cls-2" d="M632.36,135.57c1.24,4.18,1.47,16.72.49,24.18-1.03.17-2.15.45-3.29.53-1.39.1-2.8.03-4.19.03h-159.75c1.67-3.76,3.68-5.99,5.42-8.36,1.37-1.86,2.13-3.79,1.99-6.11-.08-1.39,0-2.8,0-4.19,0-39.98-.05-79.95.07-119.92.01-4.95-.65-9.47-3.54-13.58-.88-1.26-1.43-2.76-2.02-3.95.69-1.54,1.79-1.33,2.71-1.34,16.59-.03,33.18-.03,49.77,0,.91,0,1.83.3,3.27.55-1.14,2.36-1.96,4.36-3.02,6.22-1.51,2.67-2.23,5.41-2.22,8.53.07,39.37.05,78.75.06,118.12,0,1.59.13,3.17.22,5.03,1.2.3,2.29.71,3.41.82,1.38.14,2.79.05,4.19.05,30.38,0,60.76-.06,91.14.07,4.22.02,7.84-.62,10.94-3.65,1.23-1.2,2.83-2.02,4.35-3.07Z"/>
      <path class="cls-2" d="M447.26,55.03c9.46,18.24,9.25,36.44-.54,54.47-4.94,9.08-11.83,16.54-19.88,22.97-13,10.38-27.79,17.18-43.72,21.67-14.12,3.98-28.57,5.66-42.83,5.9-24.05-.4-46.82-4.72-68.12-15.48-10.24-5.17-19.55-11.65-27.53-19.95-5.72-5.96-10.5-12.58-13.79-20.18-6.63-15.32-6.58-30.64.27-45.88,4.59-10.22,11.59-18.61,20.07-25.8,12.22-10.37,26.26-17.44,41.49-22.12,19.68-6.04,39.79-8.23,60.37-6.52,17.28,1.43,33.9,5.25,49.73,12.36,11.95,5.37,22.79,12.39,32.03,21.77,4.94,5.02,9.2,10.54,12.44,16.8ZM389.87,103.98c3.61-12.3,3.88-24.77,1.71-37.33-.99-5.73-2.69-11.24-5.25-16.48-6.52-13.38-17.03-21.88-31.41-25.55-9.41-2.4-18.94-2.77-28.51-1.14-21.17,3.59-36.31,14.89-43.89,35.26-5.93,15.95-5.53,32.13.05,48.09,5.53,15.82,16.77,25.84,32.7,30.73,6.93,2.13,14.07,2.8,22.75,2.98,1.51-.09,4.51-.17,7.49-.46,24.98-2.46,38.87-17.43,44.35-36.08Z"/>
      <path class="cls-2" d="M210.53,20.96c1.58.78,2.34,2.05,2.33,3.85-.04,7.99-.04,15.98-.1,23.97,0,.34-.35.67-.9,1.65-1.77-1.15-3.27-2.1-4.75-3.08-17.98-11.87-37.68-19.02-59.05-21.74-17.07-2.17-33.9-1.31-50.37,3.87-11.81,3.71-22.39,9.54-30.97,18.64-7.34,7.77-11.86,16.97-13.89,27.41-.77,3.98-.53,7.9.56,11.85,3.08,11.21,9.36,20.21,18.39,27.37,9.44,7.47,20.28,11.9,31.95,14.39,22.92,4.89,45.28,2.23,67.25-5.22,7.39-2.51,14.49-5.71,21.35-9.42,4.4-2.38,8.7-4.87,12.2-8.58,1.33-1.41,2.89-3.32,5.02-2.6,2.4.81,2.46,3.38,2.71,5.57.11,1,.12,2,.26,2.99,1.38,9.77-2.29,17.57-9.31,24.1-4.42,4.12-9.44,7.36-14.79,10.13-10.91,5.63-22.53,9.19-34.51,11.64-19.34,3.95-38.85,4.29-58.46,2.73-14.65-1.17-28.8-4.38-42.4-9.94-12.71-5.2-24.23-12.24-33.8-22.23-8.49-8.87-14.38-19.21-16.46-31.38-1.77-10.36-1-20.72,1.46-30.92,4.19-17.4,13.72-31.32,28.02-41.97,12.56-9.36,26.81-14.92,41.97-18.3,11.54-2.57,23.24-3.84,35.07-3.82,13.59.02,27.18.08,40.71,1.5,15.74,1.65,31.27,4.36,45.98,10.47,4.96,2.07,9.7,4.69,14.52,7.07Z"/>
    </g>
    <g>
      <path class="cls-1" d="M1350.29,272.54c9.75,19.89,9.68,39.81-.28,59.59-5.88,11.68-14.51,21.13-24.7,29.2-12.99,10.28-27.6,17.52-43.29,22.64-12.13,3.96-24.54,6.64-37.27,7.71-6.52.55-13.06.87-19.6,1.29-23.04-.27-45.38-4.04-66.82-12.63-14.03-5.62-26.95-13.08-38.27-23.17-8.26-7.36-15.16-15.8-20.15-25.73-5.56-11.07-7.91-22.8-6.83-35.14.74-8.5,3.21-16.53,7.1-24.13,5.13-10.01,12.19-18.47,20.61-25.85,11.5-10.08,24.61-17.47,38.79-23.02,12.48-4.88,25.38-8.15,38.66-10,10-1.39,20.05-2.15,30.13-1.92,24.04.56,47.29,4.94,69.33,14.86,14.03,6.31,26.78,14.5,37.59,25.55,6.03,6.16,11.2,12.98,15,20.74ZM1282.66,329.09c3.58-11.32,4.47-22.95,3.6-34.71-.59-8.06-2.12-15.96-5.03-23.54-7.27-18.92-20.67-30.95-40.45-35.52-11.81-2.73-23.77-2.74-35.59-.11-23.63,5.25-39.81,19.23-47.54,42.29-5.83,17.38-5.42,35,.27,52.32,6.02,18.32,18.49,30.48,36.86,36.55,8.7,2.87,17.68,3.78,27.07,4.09,6.24-.21,12.77-.61,19.16-2.16,11.28-2.74,21.14-7.98,29.02-16.65,5.95-6.54,9.98-14.17,12.63-22.55Z"/>
      <path class="cls-1" d="M1082.49,361.1c.25,2.81-1.57,23.7-2.41,27.65-.62.13-1.32.35-2.04.41-.87.08-1.76.03-2.64.03-54.3,0-108.59,0-162.89,0-1.37,0-2.74,0-3.93,0-.66-.93-.2-1.44.15-1.93,1.91-2.66,3.78-5.35,5.79-7.94,1.23-1.58,1.86-3.24,1.65-5.23-.05-.5,0-1,0-1.51,0-46.23-.02-92.46.05-138.7,0-3.01-.49-5.67-2.18-8.19-1.33-1.98-2.41-4.13-3.54-6.24-.34-.62-.52-1.33-.88-2.28,1.42-.08,2.52-.18,3.63-.19,52.16-.4,163.5-.14,166.79.4.13.65.4,1.37.4,2.08,0,8.06-.03,16.12-.07,24.19,0,.34-.18.68-.35,1.25-1.81-1.05-2.22-3.14-4.15-4.46-8.65-.25-17.69-.04-26.74-.07-9.2-.03-18.39.04-27.59.06-9.07.01-18.14,0-27.21.02-9.05.02-18.1,0-27.29.06-.23.96-.53,1.66-.55,2.36-.06,2.77-.04,5.54-.04,8.31,0,10.58.01,21.16.03,31.75,0,1.36-.16,2.75.35,4.15,1.35.7,2.75.47,4.1.47,11.59.04,23.18.04,34.77.06,17.76.03,35.52.07,53.29.12,1.25,0,2.5.07,3.93.12,1.58,3.4,2.33,6.96,3.36,10.42,1,3.34,2.22,6.63,2.88,10.16-1.43.86-2.85.55-4.18.56-10.83.08-21.67.11-32.5.18-17.13.11-34.27.25-51.4.39-4.16.03-8.31.11-12.47.19-.86.01-1.71.13-2.65.2-.72,1.55-.47,3.08-.48,4.55-.02,13.86-.01,27.72-.01,41.57,0,3.28-.02,6.55.02,9.83.01.97.16,1.95.25,2.97,1.5.6,2.89.41,4.25.41,10.33.02,20.66.01,30.99.01h65c1.01,0,2.02-.07,3.02.01,1.87.16,3.39-.39,4.82-1.65,2.16-1.92,4.48-3.67,6.73-5.5.57-.46,1.14-.95,1.93-1.08Z"/>
      <path class="cls-1" d="M899.29,387.92c-.3,1.01-1.01.88-1.6.91-.88.05-1.76.03-2.64.03-22.55,0-45.11.01-67.66,0-5.29,0-4.13.3-7.37-3.32-32.6-36.42-65.19-72.86-97.79-109.28-.96-1.07-1.75-2.4-3.44-3.1-.17.71-.36,1.16-.37,1.61-.05,1.26-.03,2.52-.03,3.78,0,35.28,0,70.55,0,105.83,0,1.48.18,3-.33,4.55-.57.11-1.05.29-1.52.29-12.32.01-24.65.01-36.87.01-.52-.96.09-1.37.49-1.8,1.46-1.57,2.89-3.17,4.46-4.63,1.41-1.31,2.02-2.82,1.81-4.71-.07-.62-.01-1.26-.01-1.89,0-45.36,0-90.71-.01-136.07,0-5.41.61-4.16-3.46-7.63-5.86-4.97-11.76-9.9-17.62-14.87-.71-.61-1.72-1.04-1.79-2.19.26-.14.46-.36.67-.36,28.09-.02,56.18-.01,84.49-.01,33.02,37.63,66.01,75.35,99.4,113.41.37-1.04.66-1.55.7-2.08.09-1,.04-2.01.04-3.02,0-32.5.01-65.01-.01-97.51,0-5.13.49-3.88-3.33-7.35-1-.91-2.22-1.62-2.84-2.82.13-.25.17-.38.26-.46.08-.07.22-.12.33-.12,13.21,0,26.43,0,39.62,0,.4.93-.36,1.19-.79,1.54-1.96,1.58-3.93,3.15-5.93,4.68-.98.75-1.47,1.67-1.46,2.9.02,1.14-.03,2.27-.03,3.4,0,43.09,0,86.18,0,129.27,0,.63.06,1.26,0,1.89-.22,2.18.7,3.79,2.19,5.33,6.73,6.98,13.38,14.05,20.05,21.1.85.9,1.65,1.84,2.41,2.69Z"/>
      <path class="cls-1" d="M643.38,360.45c.15.21.42.41.4.58-.63,8.15-1.28,16.31-1.96,24.46-.06.72-.36,1.42-.58,2.24-.96.11-1.82.27-2.68.29-18.83.53-165.17.23-169.11-.37.22-.59.33-1.19.65-1.64,1.82-2.57,3.62-5.15,5.56-7.63,1.3-1.67,2.09-3.41,1.85-5.55-.05-.5,0-1.01,0-1.51,0-46.1-.02-92.2.05-138.3,0-3.01-.52-5.66-2.16-8.2-1.69-2.63-3.1-5.44-4.78-8.44.84-.24,1.38-.49,1.95-.54.87-.08,1.76-.03,2.64-.03,53.91,0,107.82,0,161.73,0,1.36,0,2.72.09,4.03.14.23.58.48.91.48,1.25,0,8.56-.01,17.12-.05,25.69,0,.18-.26.36-.5.67-1.1-.66-1.63-1.82-2.33-2.8-.73-1.03-1.66-1.47-2.88-1.47-2.02,0-4.03-.04-6.05-.03-16.25.06-32.49.15-48.74.2-16.12.05-32.25.05-48.37.09-1.37,0-2.73.08-4.28.12-.18.87-.44,1.57-.45,2.27-.05,2.52-.04,5.04-.03,7.56.02,10.96.04,21.92.08,32.87,0,1.24-.19,2.51.39,3.65,1.34.85,2.76.55,4.12.56,12.47.05,24.94.08,37.41.09,16.75.02,33.5.03,50.26.05,1.37,0,2.74.06,4.22.1,1.57,3.45,2.29,7.03,3.33,10.49.99,3.33,2.23,6.62,2.78,10.32-1.44.08-2.55.19-3.66.2-30.35.22-60.71.43-91.06.65-2.75.02-5.51.09-8.39.14-.24.9-.53,1.58-.6,2.29-.1,1-.04,2.01-.04,3.02,0,16.37,0,32.75,0,49.12,0,1.49.05,2.99.09,4.62.89.24,1.58.52,2.28.59,1,.09,2.01.04,3.02.04h96.36c.88,0,1.77-.04,2.64,0,1.33.07,2.43-.38,3.44-1.24,2.21-1.87,4.48-3.68,6.75-5.47.65-.52,1.19-1.34,2.2-1.18Z"/>
      <path class="cls-1" d="M462.67,237.37c.11.32.06.7.1,1.4-.73-.38-1.27-.58-1.73-.91-2.04-1.47-4.11-2.92-6.08-4.49-1.55-1.24-3.21-1.95-5.21-1.77-.63.05-1.26,0-1.89,0-23.18,0-46.36,0-69.54.01-1.61,0-3.27-.25-4.99.53-.11.69-.28,1.4-.31,2.12-.06,1.26-.02,2.52-.02,3.78,0,43.84,0,87.67.01,131.51,0,3.13.19,6.27.29,9.4,2.14,2.12,4.29,4.23,6.43,6.36.88.87,1.75,1.75,2.55,2.55-.3,1.04-1,.93-1.59.96-.88.04-1.76.03-2.64.03-18.39,0-36.78.01-55.17-.02-1.32,0-2.72.29-4.31-.49.51-.63.83-1.13,1.24-1.52,1.64-1.56,3.23-3.2,4.99-4.61,1.76-1.4,2.3-3.1,2.24-5.27-.13-4.15-.06-8.31-.08-12.47-.19-41.57-.38-83.14-.57-124.7-.01-2.26-.07-4.52-.11-6.9-.86-.25-1.54-.54-2.24-.63-.87-.11-1.76-.05-2.64-.05-22.67,0-45.35.04-68.02-.05-2.93-.01-5.35.68-7.62,2.53-2.21,1.81-4.54,3.49-7.09,5.15-.06-3.35,3.1-20.56,4.41-24.33.4-.1.88-.32,1.36-.32,69.91-.01,139.81-.01,209.82-.01.43.69.92,1.27,1.17,1.94,2.44,6.74,4.85,13.5,7.25,20.26Z"/>
      <path class="cls-1" d="M262,389.65c-.77.23-1.11.43-1.44.43-22.92.01-45.83.01-68.92.01-.77-1.16-1.56-2.28-2.27-3.44-23.39-38.09-46.77-76.19-70.15-114.28-.83-1.35-1.51-2.84-2.65-3.84-.38.11-.51.13-.62.19-.11.06-.2.14-.29.23-.09.08-.17.18-.25.28-.08.1-.14.2-.21.31-.07.11-.13.21-.2.32-.13.21-.26.43-.39.65-.13.22-.24.44-.37.66-22.6,39.14-45.21,78.28-67.82,117.42-.12.22-.26.43-.41.63-.07.1-.15.2-.24.29s-.17.18-.26.27c-3.61.49-35.59.01-44.14-.66-.62-1.14.31-1.88.8-2.65,4.04-6.38,8.12-12.75,12.19-19.11,26.11-40.84,52.22-81.69,78.33-122.54.75-1.17,1.55-2.3,2.18-3.53,2.6-5.06,2.46-10-1.16-14.5-1.72-2.14-3.8-4.01-5.84-5.89-1.47-1.36-3.13-2.51-5.17-4.11,3.58-.47,71.42-.53,75.96-.11,3.42,5.46,6.75,11.22,10.18,16.92,3.5,5.83,6.98,11.67,10.47,17.5,3.42,5.73,6.84,11.46,10.26,17.19,3.49,5.84,6.97,11.68,10.46,17.51,3.42,5.73,6.85,11.45,10.28,17.18,3.42,5.73,6.84,11.46,10.26,17.19,3.49,5.84,6.97,11.67,10.46,17.51,3.42,5.73,6.85,11.46,10.27,17.18,3.49,5.84,6.99,11.66,10.45,17.51,3.38,5.69,6.86,11.33,10.24,17.25Z"/>
    </g>
    <g>
      <path class="cls-3" d="M1358.69,522.93c.26,12.93-3.6,24.3-10.44,34.54-6.26,9.36-14.21,16.57-23.21,22.43-12.05,7.83-25.06,12.67-38.77,15.31-7.81,1.5-15.67,2.31-21.82,2.18-18.8.07-35.27-3.14-51.05-10.34-12.08-5.51-22.98-13.06-31.91-23.81-6.37-7.67-11.14-16.39-13.38-26.61-3.09-14.09-1.04-27.36,5.51-39.81,5.65-10.74,13.62-18.99,22.9-25.74,11.37-8.26,23.84-13.56,37.06-16.77,6.8-1.65,13.68-2.82,20.65-3.08,4.61-.17,9.24-.46,13.84-.24,19.54.91,38.18,5.75,55.39,16.43,10.36,6.43,19.38,14.61,26.16,25.56,5.58,9.01,8.85,18.9,9.07,29.96ZM1304.09,545.22c2.47-8.99,3.06-18.19,2.39-27.54-.43-5.93-1.38-11.71-3.16-17.31-3.54-11.11-9.63-19.87-19.16-25.4-6.58-3.82-13.69-5.33-21.03-5.64-5.2-.22-10.37.27-15.44,1.59-14.37,3.74-25.03,12.75-31.39,27.69-3.53,8.28-5.01,17.07-4.85,26.54-.09,5.19.44,10.64,1.62,15.99,4.12,18.62,14.39,30.57,31.19,35.35,8.26,2.35,16.64,2.66,25.05,1.47,6.27-.89,12.21-3.04,17.61-6.81,8.78-6.13,14.2-15.06,17.18-25.92Z"/>
      <path class="cls-3" d="M1167.57,597.96c-.09.23-.1.25-.19.49h-2.19c-18.05,0-36.1-.02-54.15.04-1.65,0-2.8-.49-3.91-1.9-10.73-13.6-21.53-27.14-32.31-40.7-14.26-17.93-28.52-35.87-42.78-53.8-.45-.56-.92-1.08-1.68-1.96v98.07c-1.54.48-27.71.65-30.86.22.25-.45.41-.86.67-1.18,1.33-1.6,2.63-3.25,4.05-4.74.96-1.01,1.27-2.09,1.27-3.53-.04-21.41-.03-42.82-.03-64.23,0-18.17-.02-36.34.04-54.51,0-1.59-.47-2.57-1.52-3.55-5.24-4.89-10.42-9.86-15.62-14.8-.33-.31-.64-.67-1.02-1.07.61-.71,1.33-.45,1.97-.46,10.2-.02,20.39-.01,30.59-.01s20.77.03,31.16-.03c1.38-.01,2.33.39,3.26,1.58,15.31,19.72,30.65,39.4,45.99,59.1,8.75,11.23,17.49,22.46,26.23,33.69.26.34.46.73.68,1.11q.23-.07.46-.13c.04-.52.13-1.04.13-1.55,0-28.73,0-57.47.03-86.2,0-1.24-.3-2.1-1.18-2.89-1.46-1.3-2.82-2.75-4.3-4.21,1.45-.56,30.53-.68,32.81-.16-.35.41-.6.77-.91,1.05-1.67,1.5-3.34,3.01-5.06,4.45-.71.59-1.13,1.53-1.09,2.52.07,1.82.02,3.65.02,5.48,0,36.06.01,72.12-.03,108.18,0,1.73.37,3.03,1.47,4.31,5.52,6.4,10.96,12.9,16.42,19.36.54.64,1.05,1.3,1.57,1.95Z"/>
      <path class="cls-3" d="M988.7,600.41c-.94.07-1.55.14-2.15.14-16.72,0-33.43-.02-50.15.05-1.48,0-2.25-.56-2.98-1.94-18.1-33.89-36.24-67.74-54.37-101.61-.32-.6-.66-1.19-1.13-2.02-.39.64-.71,1.11-.97,1.61-8.66,17.03-17.32,34.06-25.97,51.09-8.37,16.48-16.75,32.96-25.08,49.47-.76,1.51-1.6,1.96-3.72,1.59-9.36-1.65-18.88-1.72-28.22.05-1.55.29-2.04.17-3.75.08.4-.8.66-1.4.96-1.96,8.93-16.04,17.87-32.07,26.8-48.1,14.26-25.61,28.53-51.21,42.79-76.83,2.74-4.93,2.55-9.65-.92-14-2.04-2.56-4.55-4.66-6.85-6.95-.5-.49-1.04-.91-1.56-1.36.05-.19.06-.2.11-.39.61-.04,1.23-.11,1.85-.11,18.24,0,36.47.01,54.71-.04,1.46,0,2.24.5,2.98,1.91,12.87,24.81,25.79,49.58,38.71,74.37,12.57,24.11,25.13,48.22,37.69,72.34.4.76.74,1.55,1.24,2.61Z"/>
      <path class="cls-3" d="M795.89,466.68c.87.59,1.41,1.19,1.4,2.47-.06,8.24-.03,16.48-.04,24.71,0,.28-.06.55-.13,1.25-.7-.49-1.18-.78-1.62-1.13-14.53-11.67-30.72-18.89-48.35-22.1-4.42-.8-8.91-1.12-13.39-1.45-10.96-.82-21.71.69-32.19,4.28-8.94,3.07-17.08,7.79-23.95,14.98-7.39,7.73-11.88,17.2-13.72,28.3-.57,3.44-.22,6.7.58,9.99,2.71,11.13,8.55,19.82,16.86,26.53,7.82,6.32,16.65,10.02,26.06,12.13,4.47,1,8.98,1.56,13.54,1.78,21.51,1.04,41.42-5.03,60.2-16.4,3.25-1.97,6.27-4.21,8.83-7.22.69-.81,1.5-1.53,2.36-2.1,1.64-1.09,3.01-.63,3.65,1.36.5,1.57.83,3.26.94,4.92.18,2.86.26,5.75.12,8.61-.2,4.21-1.9,7.84-4.12,11.16-2.4,3.6-5.4,6.52-8.68,9.07-7.19,5.58-15.16,9.3-23.48,12.15-9.09,3.12-18.39,5-27.85,6.11-8.78,1.03-17.57.88-26.35.6-13.15-.43-26.02-2.89-38.44-7.91-11.54-4.67-22.13-11.14-30.99-20.75-7.31-7.93-12.59-17.24-14.9-28.42-1.15-5.57-1.46-11.21-1.13-16.96.43-7.35,1.5-14.52,3.71-21.46,4.42-13.86,12.29-24.8,23.04-33.23,10.13-7.96,21.47-12.8,33.5-15.8,6.55-1.63,13.17-2.61,19.87-3.15,6.7-.53,13.4-.41,20.11-.25,4.49.11,8.99.09,13.46.46,6.68.55,13.36,1.15,19.98,2.16,8.78,1.34,17.4,3.63,25.73,7.07,5.35,2.21,10.51,4.87,15.39,8.19Z"/>
      <path class="cls-3" d="M561.7,448.89h50.99c-.44.62-.68,1.07-1.01,1.4-2.15,2.19-4.27,4.42-6.5,6.49-1.04.96-1.35,1.99-1.35,3.45.04,15.84.03,31.69.03,47.53v84.05c2.6,2.25,5.14,4.45,7.61,6.59-.06.26-.07.34-.1.39-.03.05-.1.1-.15.11-.44.04-.88.11-1.32.11-15.51-.01-31.02-.03-46.54-.06-.09,0-.19-.15-.42-.33.36-.46.67-.95,1.06-1.36,1.56-1.65,3.12-3.3,4.71-4.9.6-.6,1-1.24.9-2.18-.04-.42,0-.84,0-1.27,0-42.88-.01-85.76.04-128.64,0-1.93-.4-3.3-1.78-4.5-1.74-1.51-3.32-3.26-4.97-4.91-.48-.48-.92-.99-1.38-1.49.08-.23.09-.24.17-.48Z"/>
      <path class="cls-3" d="M553.48,597.47c-.08.23-.08.25-.16.48-.51.03-1.02.1-1.53.1-13.11,0-26.22,0-39.33.02-1,0-1.78-.24-2.54-1.06-12.46-13.42-24.96-26.81-37.44-40.2-3.32-3.57-6.65-7.14-9.98-10.71-.27-.29-.57-.54-.88-.83-2.25,2.49-4.47,4.88-6.63,7.33-10.37,11.77-20.73,23.55-31.09,35.33-2.88,3.27-5.78,6.52-8.63,9.82-.75.87-1.52,1.29-2.64,1.29-18.81-.03-37.62-.02-56.43-.03-.44,0-.87-.06-1.39-.1,0-.97.68-1.36,1.13-1.85,6.82-7.45,13.65-14.89,20.49-22.32,8.97-9.74,17.94-19.48,26.91-29.23,8.1-8.81,16.2-17.63,24.3-26.45.35-.38.67-.8,1.13-1.35-21.04-22.87-42.1-45.57-63.38-68.73,1.04-.09,1.58-.17,2.11-.17,14.05.13,28.1.28,42.15.4.88.01,1.53.28,2.17,1.01,10.9,12.47,21.8,24.94,32.75,37.36,2.43,2.76,5.03,5.34,7.68,8.14.31-.33.8-.84,1.28-1.38,12.05-13.58,24.17-27.1,36.09-40.82,2.1-2.41,4.14-3.27,7.07-3.25,8.92.07,17.84-.2,26.76-.35,8.22-.14,16.45-.27,24.67-.43,1.69-.03,3.38-.18,5.17-.28-.04,1.1-.71,1.5-1.18,1.99-3.97,4.15-7.96,8.26-11.94,12.39-9.78,10.12-19.56,20.24-29.33,30.37-8.9,9.21-17.79,18.43-26.68,27.65-.65.67-1.28,1.35-1.9,2.01.81,1.48,21.8,23.24,35.54,37.17,11.97,12.13,23.78,24.44,35.66,36.68Z"/>
      <path class="cls-3" d="M342.97,573.42c.43,1.79-1,21.53-1.83,25.74h-135.12c.3-.64.48-1.15.75-1.57,1.65-2.58,3.27-5.2,5.03-7.68.97-1.37,1.27-2.78,1.26-4.47-.04-22.11-.02-44.22-.02-66.33,0-18.59-.01-37.18.02-55.77,0-1.53-.28-2.86-.99-4.19-1.4-2.59-2.69-5.26-4.02-7.9-.21-.42-.39-.85-.53-1.17.07-.23.07-.31.11-.36.04-.05.11-.09.16-.09,44.07-.04,88.13-.08,132.2-.11.37,0,.74.07,1.08.11.43,1.81.45,22.38,0,26.11-.55-.76-1.08-1.26-1.35-1.9-1.19-2.78-3.13-3.36-5.82-3.34-19,.14-37.99.05-56.99.09-7.59.01-15.18.16-22.78.25-.37,0-.74.06-1.36.12-.15,13.16.15,26.27.08,39.47,25.15.14,50.01.28,75.13.42,1.68,6.33,3.32,12.5,5.01,18.88-.69.11-1.16.24-1.63.25-1.58.03-3.17.03-4.75.03-14.31.05-28.62.06-42.92.15-10.06.07-20.12.25-30.18.39-.43,0-.86.07-1.41.12v50.55c.76.04,1.55.13,2.34.13,22.99,0,45.97,0,68.96,0,2.79,0,5.58-.1,8.36.04,1.65.08,2.89-.5,4.1-1.67,1.95-1.9,4.01-3.67,6.03-5.48.32-.29.69-.53,1.07-.82Z"/>
      <path class="cls-3" d="M194.61,595.84c.27.62.51,1.26.83,2.09-.47.09-.83.17-1.18.23-.11.02-.23.03-.35.03-11.39.09-22.79.19-34.17.28-6.65.05-13.3.09-19.94.14-.69,0-1.37,0-2.34,0,.37-.74.55-1.23.82-1.66,1.01-1.61,2.01-3.25,3.1-4.8.75-1.06,1-2.17.99-3.51-.02-17.46,0-34.93,0-52.39,0-.88,0-1.77-.36-2.77-.47.72-.94,1.44-1.4,2.16-11.38,17.78-22.77,35.55-34.11,53.36-1.04,1.63-2.11,2.17-4.36,1.79-4.4-.75-8.87-.66-13.28.02-1.96.3-2.99-.11-4-1.55-10.48-14.92-21.01-29.8-31.53-44.7-.54-.76-1.09-1.52-1.88-2.64-.06.87-.11,1.32-.11,1.76-.01,15.07,0,30.14-.06,45.21,0,1.35.39,2.22,1.31,3.03,2.07,1.84,4.08,3.78,6.16,5.71-.5.85-1.2.53-1.76.54-5.32.03-10.64.02-15.96.02H.23c-.1-.22-.13-.27-.23-.49.84-1.37,1.69-2.74,2.53-4.12,1.28-2.1,3.03-4.03,3.69-6.35.65-2.31.22-5.01.22-7.55,0-38.45,0-76.9.02-115.35,0-1.65-.22-3.17-.87-4.68-1.21-2.79-2.3-5.64-3.43-8.46-.2-.5-.36-1.03-.54-1.54,1.43-.55,54.15-.8,59.03-.31.3.87-.4,1.26-.76,1.74-2.38,3.2-4.78,6.39-7.22,9.53-.94,1.21-1.15,2.43-.79,4.43.97,5.49,1.1,11.14.02,16.61-.39,1.98-.16,3.27.67,4.57,13.27,20.6,26.52,41.22,39.79,61.82.32.5.69.96,1.27,1.76.39-.6.66-1.07.97-1.49,13.42-18.35,26.85-36.7,40.27-55.05,2.56-3.49,5.09-7.01,7.68-10.47.84-1.12,1.12-2.24.88-3.95-.63-4.48-.52-9.04.1-13.52.23-1.63.11-2.8-.67-3.95-2.29-3.36-4.54-6.77-6.79-10.17-.36-.55-.68-1.13-1.04-1.74,1.68-.53,56.48-.15,59.69.38-.02.26,0,.55-.07.8-.13.47-.31.92-.48,1.38-1.19,3.26-2.83,6.41-3.45,9.8-.61,3.32-.19,6.87-.19,10.32-.04,35.92-.08,71.84-.13,107.75,0,1.11-.07,2.22-.17,3.33-.12,1.36-.06,2.64.53,3.91,1.34,2.87,2.58,5.8,3.86,8.71Z"/>
    </g>
  </g>
</svg>